<svg width="36" height="36" viewBox="0 0 36 36" fill="none" xmlns="http://www.w3.org/2000/svg">
<path d="M30.375 30.3751V16.2422C30.3725 16.0866 30.3388 15.9329 30.276 15.7904C30.2132 15.648 30.1226 15.5195 30.0094 15.4126L18.7594 5.18912C18.552 4.99939 18.2811 4.89417 18 4.89417C17.7189 4.89417 17.448 4.99939 17.2406 5.18912L5.99062 15.4126C5.87742 15.5195 5.78675 15.648 5.72396 15.7904C5.66117 15.9329 5.62752 16.0866 5.625 16.2422V30.3751" stroke="white" stroke-width="2" stroke-linecap="round" stroke-linejoin="round"/>
<path d="M2.25 30.375H33.75" stroke="white" stroke-width="2" stroke-linecap="round" stroke-linejoin="round"/>
<path d="M21.375 30.375V22.5C21.375 22.2016 21.2565 21.9155 21.0455 21.7045C20.8345 21.4935 20.5484 21.375 20.25 21.375H15.75C15.4516 21.375 15.1655 21.4935 14.9545 21.7045C14.7435 21.9155 14.625 22.2016 14.625 22.5V30.375" stroke="white" stroke-width="2" stroke-linecap="round" stroke-linejoin="round"/>
</svg>
