<svg width="434" height="456" viewBox="0 0 434 456" fill="none" xmlns="http://www.w3.org/2000/svg">
<circle cx="221.772" cy="247.623" r="6.1684" transform="rotate(74.5934 221.772 247.623)" fill="#2765AE"/>
<circle cx="208.771" cy="280.857" r="6.1684" transform="rotate(74.5934 208.771 280.857)" fill="#2765AE"/>
<circle cx="166.928" cy="275.689" r="12.6377" transform="rotate(74.5934 166.928 275.689)" fill="#2765AE"/>
<rect x="199.108" y="284.266" width="18.5999" height="2.42692" transform="rotate(-165.407 199.108 284.266)" fill="#2765AE"/>
<rect x="211.374" y="272.51" width="18.5999" height="2.42692" transform="rotate(-70.7717 211.374 272.51)" fill="#2765AE"/>
<circle cx="413.537" cy="379.831" r="14.1691" transform="rotate(90 413.537 379.831)" fill="#003F8B"/>
<circle cx="324.029" cy="342.853" r="29.0294" transform="rotate(90 324.029 342.853)" fill="#003F8B"/>
<rect x="390.06" y="381.484" width="42.7248" height="5.57476" transform="rotate(-150 390.06 381.484)" fill="#003F8B"/>
<rect x="424.395" y="362.936" width="42.7248" height="5.57476" transform="rotate(-55.3652 424.395 362.936)" fill="#003F8B"/>
<circle cx="14.6207" cy="358.708" r="7.5892" transform="rotate(-145.768 14.6207 358.708)" fill="#3D7DCA"/>
<circle cx="0.329962" cy="317.193" r="7.5892" transform="rotate(-145.768 0.329962 317.193)" fill="#3D7DCA"/>
<circle cx="43.6742" cy="288.698" r="15.5486" transform="rotate(-145.768 43.6742 288.698)" fill="#3D7DCA"/>
<rect x="6.67163" y="306.298" width="22.884" height="2.98593" transform="rotate(-25.7681 6.67163 306.298)" fill="#3D7DCA"/>
<rect x="4.53955" y="327.092" width="22.884" height="2.98593" transform="rotate(68.8668 4.53955 327.092)" fill="#3D7DCA"/>
<circle cx="8.06066" cy="9.76407" r="7.5892" transform="rotate(20.4255 8.06066 9.76407)" fill="#3D7DCA" fill-opacity="0.4"/>
<circle cx="31.8458" cy="46.6698" r="7.5892" transform="rotate(20.4255 31.8458 46.6698)" fill="#3D7DCA" fill-opacity="0.4"/>
<circle cx="-3.44586" cy="84.6849" r="15.5486" transform="rotate(20.4255 -3.44586 84.6849)" fill="#3D7DCA" fill-opacity="0.4"/>
<rect x="28.2874" y="58.7629" width="22.884" height="2.98593" transform="rotate(140.425 28.2874 58.7629)" fill="#3D7DCA" fill-opacity="0.4"/>
<rect x="25.3955" y="38.0614" width="22.884" height="2.98593" transform="rotate(-124.94 25.3955 38.0614)" fill="#3D7DCA" fill-opacity="0.4"/>
<circle cx="344.717" cy="70.7079" r="5.13071" transform="rotate(163.771 344.717 70.7079)" fill="#3D7DCA" fill-opacity="0.4"/>
<circle cx="316.922" cy="60.2912" r="5.13071" transform="rotate(163.771 316.922 60.2912)" fill="#3D7DCA" fill-opacity="0.4"/>
<circle cx="320.72" cy="25.4294" r="10.5117" transform="rotate(163.771 320.72 25.4294)" fill="#3D7DCA" fill-opacity="0.4"/>
<rect x="313.971" y="52.296" width="15.4708" height="2.01865" transform="rotate(-76.2288 313.971 52.296)" fill="#3D7DCA" fill-opacity="0.4"/>
<rect x="323.895" y="62.3567" width="15.4708" height="2.01865" transform="rotate(18.4061 323.895 62.3567)" fill="#3D7DCA" fill-opacity="0.4"/>
<circle r="3.35595" transform="matrix(0.826767 0.562544 0.562544 -0.826767 390.548 158.059)" fill="#3D7DCA"/>
<circle r="3.35595" transform="matrix(0.826767 0.562544 0.562544 -0.826767 409.944 157.198)" fill="#3D7DCA"/>
<circle r="6.8756" transform="matrix(0.826767 0.562544 0.562544 -0.826767 414.629 134.744)" fill="#3D7DCA"/>
<rect width="10.1193" height="1.32038" transform="matrix(0.0737937 -0.997273 -0.997273 -0.0737937 413.396 152.821)" fill="#3D7DCA"/>
<rect width="10.1193" height="1.32038" transform="matrix(-0.999975 0.00703246 0.00703246 0.999975 405.189 157.073)" fill="#3D7DCA"/>
<circle cx="95.8804" cy="421.594" r="11.3281" transform="rotate(-56.7374 95.8804 421.594)" fill="#004FAE"/>
<circle cx="157.479" cy="399.217" r="11.3281" transform="rotate(-56.7374 157.479 399.217)" fill="#004FAE"/>
<circle cx="201.101" cy="463.187" r="23.2087" transform="rotate(-56.7374 201.101 463.187)" fill="#004FAE"/>
<rect x="173.899" y="408.407" width="34.158" height="4.45697" transform="rotate(63.2626 173.899 408.407)" fill="#004FAE"/>
<rect x="142.812" y="405.75" width="34.158" height="4.45697" transform="rotate(157.897 142.812 405.75)" fill="#004FAE"/>
<circle cx="405.644" cy="288.36" r="6.1684" transform="rotate(-126.53 405.644 288.36)" fill="#2765AE"/>
<circle cx="405.795" cy="252.674" r="6.1684" transform="rotate(-126.53 405.795 252.674)" fill="#2765AE"/>
<circle cx="446.688" cy="242.415" r="12.6377" transform="rotate(-126.53 446.688 242.415)" fill="#2765AE"/>
<rect x="413.579" y="246.011" width="18.5999" height="2.42692" transform="rotate(-6.52998 413.579 246.011)" fill="#2765AE"/>
<rect x="406.375" y="261.397" width="18.5999" height="2.42692" transform="rotate(88.1049 406.375 261.397)" fill="#2765AE"/>
</svg>
